# xmcd
#
# Track frame offsets: 
#        150
#        16097
#        30148
#        47238
#        61026
#        75431
#        89912
#        105319
#        123428
#        135255
#        147494
#        161585
#        177404
#        192667
#        204325
#        219269
#        234157
#        248276
#        268986
#        286565
#
# Disc length: 4004 seconds
#
# Revision: 1
# Processed by: cddbd v1.5.2PL0 Copyright (c) Steve Scherf et al.
# Submitted via: ExactAudioCopyFreeDBPlugin 1.0
#
DISCID=020fa214
DTITLE=Various Artist - Internationaler ADAC Truck Grand-Prix 2008 (C
DTITLE=D 2)
DYEAR=2008
DGENRE=Country
TTITLE0=Truck Stop - Ich bin dein Mann
TTITLE1=Tom Astor - Ehrlichkeit
TTITLE2=The Wilkinsons - Fast car
TTITLE3=John Arthur Martines - Rio Grande Rodeo Night
TTITLE4=Chely Wright - C'est la vie
TTITLE5=Katie Grant - Mother and child
TTITLE6=Jonny Hill - Und wieder fahr' ich weg von dir
TTITLE7=Daniel T. Coates - Takin' ma last chance
TTITLE8=Hillibilly Deluxe - Honky tonk song
TTITLE9=Martin Jones - Smokin' hot
TTITLE10=Suzie Candell - Billy loves his car
TTITLE11=Mark Bender - Stolz wie der Morgen
TTITLE12=Ulli Möhring and Autumn Leaves - Shootin' in the dark
TTITLE13=Chicken Train - Old friends never die
TTITLE14=Michael Heck - Easy rider U. S. A.
TTITLE15=Miss Behavin - Twistin' Jack
TTITLE16=Wild Bunch - She's a boy
TTITLE17=Michael Lonstar - Lords of leather and chrome
TTITLE18=Megaband - Video killed the radio star
TTITLE19=Dagmar - Warum sag ich ihm nicht, dass ich ihn liebe
EXTD=
EXTT0=
EXTT1=
EXTT2=
EXTT3=
EXTT4=You never can tell
EXTT5=
EXTT6=
EXTT7=
EXTT8=
EXTT9=
EXTT10=
EXTT11=
EXTT12=
EXTT13=
EXTT14=
EXTT15=
EXTT16=
EXTT17=
EXTT18=
EXTT19=
PLAYORDER=
